<?xml version="1.0" standalone="no"?>
<!DOCTYPE svg PUBLIC "-//W3C//DTD SVG 20010904//EN"
 "http://www.w3.org/TR/2001/REC-SVG-20010904/DTD/svg10.dtd">
<svg version="1.0" xmlns="http://www.w3.org/2000/svg"
 width="700.000000pt" height="700.000000pt" viewBox="0 0 700.000000 700.000000"
 preserveAspectRatio="xMidYMid meet">
<metadata>
Created by potrace 1.11, written by Peter Selinger 2001-2013
</metadata>
<g transform="translate(0.000000,700.000000) scale(0.100000,-0.100000)"
fill="#000000" stroke="none">
<path d="M4508 6995 c-2 -1 -34 -6 -71 -10 -37 -3 -76 -8 -85 -10 -9 -1 -37
-6 -62 -10 -70 -11 -78 -13 -164 -35 -419 -107 -772 -308 -1081 -618 -178
-178 -289 -309 -418 -497 -99 -146 -163 -260 -240 -435 -50 -114 -118 -323
-133 -409 -3 -14 -9 -42 -14 -61 -5 -19 -12 -62 -16 -95 -3 -33 -8 -63 -10
-66 -2 -3 -6 -39 -9 -80 -4 -41 -8 -90 -10 -109 -2 -19 -4 -332 -4 -696 l-1
-660 -292 -292 c-161 -161 -310 -304 -332 -318 -66 -45 -142 -66 -236 -66 -72
0 -104 6 -213 41 -260 83 -466 70 -677 -42 -277 -148 -444 -432 -435 -745 4
-163 35 -273 118 -417 75 -129 252 -275 397 -328 141 -51 356 -65 473 -31 15
5 17 1 11 -20 -13 -54 -19 -175 -12 -258 20 -226 133 -428 318 -565 142 -106
307 -160 486 -161 222 -1 424 81 579 233 83 82 123 138 170 238 96 203 105
412 27 642 -46 137 -54 221 -31 322 22 102 50 137 362 450 l300 301 671 1
c369 1 694 3 721 6 144 14 287 37 420 69 79 20 205 57 205 62 0 2 -28 38 -63
81 -138 172 -244 388 -295 603 -32 134 -37 185 -37 360 1 234 25 362 106 560
80 193 229 398 395 541 171 147 407 258 654 310 114 23 345 31 470 15 155 -19
362 -82 504 -153 l49 -25 -7 154 c-10 252 -47 451 -128 688 -51 149 -159 368
-246 500 -376 564 -948 923 -1627 1021 -70 10 -478 22 -487 14z"/>
</g>
</svg>
